# xmcd
#
# Track frame offsets:
# 150
# 13113
# 28324
# 41490
# 57427
# 71151
# 84915
# 102421
# 116969
# 131446
# 142068
# 156932
# 170398
# 183270
# 198607
# 209872
# 223045
#
# Disc length: 3127 seconds
#
#
# Revision: 4
# Processed by: cddbd v1.5.2PL0 Copyright (c) Steve Scherf et al.
# Submitted via: FreeRIP 2.945 
#
DISCID=0c0c3511
DTITLE=Teodoro e Sampaio - Cuidado com o casamento
DYEAR=2006
DGENRE=Sertanejo
TTITLE0=Fogo no facho
TTITLE1=Louco por mulher
TTITLE2=Tô facinho
TTITLE3=Saudade pica pau
TTITLE4=Roela no eno
TTITLE5=Bão demais da conta
TTITLE6=Boemia
TTITLE7=Bate a bota no chão
TTITLE8=O certinho e o safado
TTITLE9=Do que a mulher mais gosta
TTITLE10=Roupão de banho
TTITLE11=Cuidado com o casamento
TTITLE12=Furbunço no piseiro
TTITLE13=Cuida bem, caminhoneiro
TTITLE14=Paixão chegou
TTITLE15=Deixa que eu cuido dela
TTITLE16=Rei do cangaço
EXTD=YEAR: 2006
EXTT0=
EXTT1=
EXTT2=
EXTT3=
EXTT4=
EXTT5=
EXTT6=
EXTT7=
EXTT8=
EXTT9=
EXTT10=
EXTT11=
EXTT12=
EXTT13=
EXTT14=
EXTT15=
EXTT16=
PLAYORDER=
